<?xml version="1.0" encoding="utf-8"?>
<!-- Generator: Adobe Illustrator 16.0.0, SVG Export Plug-In . SVG Version: 6.00 Build 0)  -->
<!DOCTYPE svg PUBLIC "-//W3C//DTD SVG 1.1//EN" "http://www.w3.org/Graphics/SVG/1.1/DTD/svg11.dtd">
<svg version="1.1" id="Camada_1" xmlns="http://www.w3.org/2000/svg" xmlns:xlink="http://www.w3.org/1999/xlink" x="0px" y="0px"
	 width="841.89px" height="595.28px" viewBox="0 0 841.89 595.28" enable-background="new 0 0 841.89 595.28" xml:space="preserve">
<g>
	<path fill="#293B8C" d="M762.326,300.654c0,6.094-4.441,10.418-11.197,10.418h-14.53v-20.843h14.53
		C757.885,290.229,762.326,294.557,762.326,300.654 M780.943,355.423l-17.622-34.038c7.644-2.768,14.405-9.642,14.405-20.73
		c0-13.188-9.528-24.166-25.604-24.166h-30.938v78.934h15.414V323.93h11.085l15.406,31.493H780.943z M686.595,328.483H666.97
		l9.983-28.713L686.595,328.483z M711.425,355.423l-28.824-78.934h-12.079l-28.719,78.934h16.079l4.771-13.971h28.04l4.659,13.971
		H711.425z M644.577,290.229v-13.74h-56.653v13.74h20.631v65.194h15.401v-65.194H644.577z M582.729,331.143h-15.638
		c-1.674,6.76-5.879,11.2-13.304,11.2c-4.219,0-7.54-1.327-9.871-4.106c-3.21-3.435-3.889-6.979-3.889-22.28
		s0.679-18.848,3.889-22.289c2.331-2.768,5.652-4.105,9.871-4.105c7.425,0,11.63,4.441,13.304,11.205h15.638
		c-2.668-16.082-13.863-24.945-29.049-24.945c-8.438,0-15.52,2.881-21.291,8.646c-3.433,3.435-5.543,7.315-6.431,11.864
		c-0.891,4.436-1.325,10.979-1.325,19.624c0,8.651,0.435,15.187,1.325,19.623c0.888,4.432,2.998,8.438,6.431,11.857
		c5.771,5.765,12.853,8.646,21.291,8.646C568.752,356.082,580.061,347.224,582.729,331.143z M512.211,355.423v-13.749h-36.595
		v-19.176h31.151v-13.751h-31.151v-18.518h36.595v-13.74H460.22v78.934H512.211z M441.814,355.423v-78.934h-15.413v48.336
		l-31.269-48.336h-13.754v78.934H396.8V306.98l31.263,48.442H441.814z M350.235,315.956c0,15.187-0.883,18.846-3.881,22.174
		c-2.215,2.559-5.648,4.213-9.866,4.213c-4.211,0-7.756-1.654-9.984-4.213c-2.984-3.328-3.756-6.987-3.756-22.174
		c0-15.188,0.772-18.848,3.756-22.174c2.228-2.552,5.773-4.22,9.984-4.22c4.217,0,7.651,1.668,9.866,4.22
		C349.352,297.108,350.235,300.768,350.235,315.956z M365.642,315.956c0-13.642,0.113-23.499-7.863-31.488
		c-5.547-5.533-12.309-8.646-21.292-8.646c-8.989,0-15.849,3.112-21.392,8.646c-7.993,7.99-7.762,17.847-7.762,31.488
		c0,13.634-0.23,23.499,7.762,31.48c5.542,5.548,12.403,8.646,21.392,8.646c8.982,0,15.744-3.098,21.292-8.646
		C365.755,339.455,365.642,329.59,365.642,315.956z M300.237,331.143h-15.631c-1.668,6.76-5.873,11.2-13.3,11.2
		c-4.216,0-7.539-1.327-9.877-4.106c-3.204-3.435-3.875-6.979-3.875-22.28s0.671-18.848,3.875-22.289
		c2.339-2.768,5.661-4.105,9.877-4.105c7.427,0,11.632,4.441,13.3,11.205h15.631c-2.663-16.082-13.853-24.945-29.042-24.945
		c-8.429,0-15.526,2.881-21.293,8.646c-3.434,3.435-5.536,7.315-6.432,11.864c-0.875,4.436-1.325,10.979-1.325,19.624
		c0,8.651,0.449,15.187,1.325,19.623c0.896,4.432,2.999,8.438,6.432,11.857c5.767,5.765,12.864,8.646,21.293,8.646
		C286.266,356.082,297.574,347.224,300.237,331.143z"/>
	<path fill="#D59404" d="M775.034,395.103h-8.354l4.21-11.825L775.034,395.103z M780.066,402.23l-8.204-22.379h-2.01l-8.235,22.379
		h2.543l1.798-5.058h9.773l1.791,5.058H780.066z M759.508,395.77h-2.389c-0.598,2.735-2.581,4.521-5.374,4.521
		c-1.474,0-2.898-0.559-3.862-1.575c-1.417-1.437-1.58-2.983-1.58-7.675c0-4.685,0.163-6.214,1.58-7.67
		c0.964-1.001,2.389-1.566,3.862-1.566c2.793,0,4.714,1.796,5.313,4.528h2.449c-0.753-4.218-3.738-6.668-7.763-6.668
		c-2.202,0-4.217,0.813-5.722,2.318c-2.115,2.117-2.115,4.317-2.115,9.058c0,4.752,0,6.953,2.115,9.063
		c1.505,1.498,3.52,2.321,5.722,2.321C755.732,402.424,758.786,399.972,759.508,395.77z M738.291,402.23v-22.379h-2.389v22.379
		H738.291z M730.328,394.069v-3.559h-7.888v2.104h5.507v1.704c0,1.729-0.351,2.96-1.265,4.056c-1.031,1.249-2.61,1.916-4.242,1.916
		c-1.479,0-2.896-0.559-3.868-1.575c-1.412-1.437-1.566-2.983-1.566-7.675c0-4.685,0.154-6.189,1.566-7.631
		c0.972-1.016,2.389-1.605,3.868-1.605c2.8,0,4.811,1.724,5.443,4.552h2.384c-0.653-3.924-3.546-6.691-7.827-6.691
		c-2.231,0-4.21,0.813-5.722,2.318c-2.108,2.117-2.108,4.317-2.108,9.058c0,4.752,0,6.953,2.108,9.063
		c1.512,1.498,3.527,2.321,5.722,2.321c2.304,0,4.398-0.883,5.979-2.583C729.795,398.374,730.328,396.645,730.328,394.069z
		 M705.945,372.877h-2.712l-2.767,4.815h2.07L705.945,372.877z M707.45,391.04c0,4.691-0.161,6.195-1.578,7.646
		c-0.979,1.001-2.377,1.604-3.864,1.604c-1.485,0-2.897-0.603-3.861-1.604c-1.42-1.451-1.576-2.955-1.576-7.646
		c0-4.685,0.156-6.189,1.576-7.631c0.964-1.016,2.376-1.605,3.861-1.605c1.487,0,2.886,0.59,3.864,1.605
		C707.289,384.851,707.45,386.355,707.45,391.04z M709.827,391.04c0-4.74,0-6.94-2.097-9.058c-1.519-1.505-3.496-2.318-5.723-2.318
		c-2.238,0-4.21,0.813-5.729,2.318c-2.102,2.117-2.102,4.317-2.102,9.058c0,4.752,0,6.953,2.102,9.063
		c1.519,1.498,3.49,2.321,5.729,2.321c2.227,0,4.204-0.823,5.723-2.321C709.827,397.993,709.827,395.792,709.827,391.04z
		 M691.981,402.23v-2.128h-11.445v-20.251h-2.396v22.379H691.981z M670.129,391.04c0,4.691-0.16,6.195-1.573,7.646
		c-0.97,1.001-2.39,1.604-3.87,1.604c-1.473,0-2.88-0.603-3.861-1.604c-1.418-1.451-1.561-2.955-1.561-7.646
		c0-4.685,0.143-6.189,1.561-7.631c0.981-1.016,2.389-1.605,3.861-1.605c1.48,0,2.9,0.59,3.87,1.605
		C669.969,384.851,670.129,386.355,670.129,391.04z M672.524,391.04c0-4.74,0-6.94-2.109-9.058
		c-1.511-1.505-3.488-2.318-5.729-2.318c-2.226,0-4.216,0.813-5.709,2.318c-2.108,2.117-2.108,4.317-2.108,9.058
		c0,4.752,0,6.953,2.108,9.063c1.493,1.498,3.483,2.321,5.709,2.321c2.241,0,4.219-0.823,5.729-2.321
		C672.524,397.993,672.524,395.792,672.524,391.04z M651.238,402.23v-22.379h-2.395v17.89l-11.887-17.89h-2.256v22.379h2.381
		v-17.945l11.893,17.945H651.238z M629.418,395.77h-2.389c-0.598,2.735-2.575,4.521-5.368,4.521c-1.493,0-2.905-0.559-3.875-1.575
		c-1.418-1.437-1.573-2.983-1.573-7.675c0-4.685,0.155-6.214,1.573-7.67c0.97-1.001,2.382-1.566,3.875-1.566
		c2.793,0,4.702,1.796,5.307,4.528h2.45c-0.752-4.218-3.743-6.668-7.757-6.668c-2.207,0-4.224,0.813-5.729,2.318
		c-2.108,2.117-2.108,4.317-2.108,9.058c0,4.752,0,6.953,2.108,9.063c1.506,1.498,3.522,2.321,5.729,2.321
		C625.648,402.424,628.69,399.972,629.418,395.77z M609.701,402.23v-2.128h-11.496v-8.091h9.797v-2.136h-9.797v-7.894h11.496v-2.131
		h-13.897v22.379H609.701z M591.631,381.982v-2.131h-15.334v2.131h6.463v20.248h2.396v-20.248H591.631z M565.786,402.23v-2.128
		h-11.503v-8.091h9.804v-2.136h-9.804v-7.894h11.503v-2.131h-13.884v22.379H565.786z M546.889,396.077
		c0-1.864-0.658-3.401-1.886-4.44c-0.938-0.813-1.978-1.255-4.08-1.567l-2.457-0.379c-1.164-0.185-2.327-0.627-3.017-1.227
		c-0.685-0.595-1.015-1.473-1.015-2.58c0-2.475,1.735-4.142,4.723-4.142c2.356,0,3.835,0.651,5.225,1.914l1.536-1.542
		c-1.91-1.728-3.801-2.45-6.668-2.45c-4.436,0-7.173,2.519-7.173,6.313c0,1.796,0.573,3.178,1.698,4.187
		c0.989,0.847,2.363,1.418,4.125,1.691l2.611,0.418c1.636,0.245,2.196,0.441,2.924,1.067c0.721,0.629,1.058,1.633,1.058,2.8
		c0,2.604-2.003,4.149-5.276,4.149c-2.506,0-4.234-0.603-6.094-2.45l-1.637,1.629c2.104,2.108,4.305,2.955,7.671,2.955
		C543.809,402.424,546.889,400.004,546.889,396.077z M524.763,395.103h-8.36l4.205-11.825L524.763,395.103z M529.795,402.23
		l-8.211-22.379h-2.015l-8.231,22.379h2.545l1.785-5.058h9.784l1.787,5.058H529.795z M505.834,385.858
		c0,2.669-1.915,3.898-4.403,3.898h-5.842v-7.774h5.842C503.919,381.982,505.834,383.184,505.834,385.858z M506.171,395.975
		c0,2.53-1.712,4.128-4.486,4.128h-6.096v-8.21h6.096C504.459,391.893,506.171,393.458,506.171,395.975z M508.571,396.048
		c0-2.681-1.512-4.529-3.646-5.312c1.885-0.698,3.304-2.557,3.304-4.914c0-3.734-2.706-5.971-6.608-5.971h-8.426v22.379h8.701
		C505.871,402.23,508.571,400.103,508.571,396.048z M480.405,402.23v-2.128h-11.513v-8.091h9.809v-2.136h-9.809v-7.894h11.513
		v-2.131h-13.903v22.379H480.405z M458.487,390.791c0,2.731,0.061,6.071-1.476,7.67c-1.163,1.194-2.668,1.642-4.404,1.642h-4.87
		v-18.12h4.87c1.736,0,3.241,0.449,4.404,1.644C458.548,385.231,458.487,388.061,458.487,390.791z M460.88,390.791
		c0-3.108,0.125-6.53-2.202-8.869c-1.355-1.344-3.34-2.07-5.653-2.07h-7.683v22.379h7.683c2.313,0,4.298-0.717,5.653-2.073
		C461.005,397.84,460.88,393.899,460.88,390.791z M428.878,395.103h-8.368l4.218-11.825L428.878,395.103z M433.902,402.23
		l-8.211-22.379h-2.003l-8.247,22.379h2.55l1.798-5.058h9.766l1.805,5.058H433.902z M410.509,386.107
		c0,2.739-1.853,4.087-4.46,4.087h-5.971v-8.212h5.971C408.656,381.982,410.509,383.37,410.509,386.107z M413.345,402.23
		l-5.317-10.14c2.892-0.615,4.875-2.743,4.875-6.015c0-3.861-2.735-6.225-6.642-6.225h-8.571v22.379h2.387v-9.935h5.375l5.094,9.935
		H413.345z M389.664,391.04c0,4.691-0.154,6.195-1.562,7.646c-0.981,1.001-2.4,1.604-3.873,1.604c-1.475,0-2.887-0.603-3.864-1.604
		c-1.418-1.451-1.574-2.955-1.574-7.646c0-4.685,0.155-6.189,1.574-7.631c0.977-1.016,2.389-1.605,3.864-1.605
		c1.473,0,2.892,0.59,3.873,1.605C389.509,384.851,389.664,386.355,389.664,391.04z M392.059,391.04c0-4.74,0-6.94-2.107-9.058
		c-1.512-1.505-3.491-2.318-5.722-2.318c-2.227,0-4.212,0.813-5.718,2.318c-2.107,2.117-2.107,4.317-2.107,9.058
		c0,4.752,0,6.953,2.107,9.063c1.506,1.498,3.491,2.321,5.718,2.321c2.231,0,4.21-0.823,5.722-2.321
		C392.059,397.993,392.059,395.792,392.059,391.04z M369.238,390.791c0,2.731,0.061,6.071-1.481,7.67
		c-1.163,1.194-2.668,1.642-4.396,1.642h-4.878v-18.12h4.878c1.728,0,3.234,0.449,4.396,1.644
		C369.299,385.231,369.238,388.061,369.238,390.791z M371.633,390.791c0-3.108,0.125-6.53-2.215-8.869
		c-1.342-1.344-3.329-2.07-5.654-2.07H356.1v22.379h7.664c2.325,0,4.312-0.717,5.654-2.073
		C371.758,397.84,371.633,393.899,371.633,390.791z M347.449,395.103h-8.361l4.211-11.825L347.449,395.103z M352.487,402.23
		l-8.21-22.379h-2.01l-8.243,22.379h2.551l1.786-5.058h9.784l1.797,5.058H352.487z M328.526,385.858
		c0,2.669-1.917,3.898-4.404,3.898h-5.84v-7.774h5.84C326.61,381.982,328.526,383.184,328.526,385.858z M328.881,395.975
		c0,2.53-1.736,4.128-4.51,4.128h-6.089v-8.21h6.089C327.145,391.893,328.881,393.458,328.881,395.975z M331.257,396.048
		c0-2.681-1.512-4.529-3.645-5.312c1.884-0.698,3.303-2.557,3.303-4.914c0-3.734-2.701-5.971-6.6-5.971h-8.429v22.379h8.701
		C328.552,402.23,331.257,400.103,331.257,396.048z M309.723,394.842v-14.99h-2.389v14.804c0,3.389-2.165,5.635-5.43,5.635
		c-3.272,0-5.417-2.246-5.417-5.635v-14.804h-2.383v14.99c0,4.471,3.266,7.582,7.801,7.582
		C306.424,402.424,309.723,399.313,309.723,394.842z M289.133,395.77h-2.395c-0.591,2.735-2.581,4.521-5.368,4.521
		c-1.48,0-2.899-0.559-3.87-1.575c-1.412-1.437-1.573-2.983-1.573-7.675c0-4.685,0.161-6.214,1.573-7.67
		c0.97-1.001,2.39-1.566,3.87-1.566c2.787,0,4.715,1.796,5.313,4.528h2.45c-0.753-4.218-3.751-6.668-7.762-6.668
		c-2.202,0-4.217,0.813-5.729,2.318c-2.096,2.117-2.096,4.317-2.096,9.058c0,4.752,0,6.953,2.096,9.063
		c1.512,1.498,3.527,2.321,5.729,2.321C285.365,402.424,288.406,399.972,289.133,395.77z M267.91,402.23v-22.379h-2.382v17.89
		l-11.887-17.89h-2.258v22.379h2.382v-17.945l11.882,17.945H267.91z M244.895,402.23v-22.379h-2.375v22.379H244.895z"/>
	<path fill="#D59404" d="M781.796,433.799c0-1.859-0.667-3.391-1.885-4.43c-0.946-0.821-1.986-1.263-4.088-1.58l-2.449-0.373
		c-1.166-0.186-2.334-0.628-3.018-1.226c-0.697-0.596-1.002-1.474-1.002-2.574c0-2.489,1.723-4.157,4.716-4.157
		c2.356,0,3.825,0.668,5.211,1.923l1.55-1.542c-1.927-1.729-3.806-2.45-6.668-2.45c-4.428,0-7.173,2.513-7.173,6.319
		c0,1.785,0.561,3.171,1.692,4.181c0.977,0.839,2.357,1.41,4.125,1.69l2.612,0.419c1.622,0.246,2.195,0.432,2.917,1.063
		c0.723,0.627,1.069,1.629,1.069,2.803c0,2.605-2.01,4.15-5.281,4.15c-2.506,0-4.243-0.591-6.095-2.458l-1.637,1.637
		c2.103,2.104,4.305,2.967,7.677,2.967C778.717,440.161,781.796,437.723,781.796,433.799 M759.664,432.821h-8.361l4.211-11.818
		L759.664,432.821z M764.702,439.964l-8.217-22.377h-2.004l-8.247,22.377h2.556l1.785-5.07h9.778l1.793,5.07H764.702z
		 M746.805,419.708v-2.121h-15.35v2.121h6.486v20.256h2.383v-20.256H746.805z M726.373,428.768c0,4.683-0.161,6.193-1.574,7.637
		c-0.977,1.021-2.39,1.611-3.862,1.611c-1.487,0-2.899-0.591-3.875-1.611c-1.406-1.443-1.567-2.954-1.567-7.637
		c0-4.68,0.161-6.19,1.567-7.641c0.976-1,2.388-1.598,3.875-1.598c1.473,0,2.886,0.598,3.862,1.598
		C726.212,422.577,726.373,424.088,726.373,428.768z M728.756,428.768c0-4.746,0-6.944-2.103-9.06
		c-1.505-1.499-3.485-2.318-5.717-2.318c-2.238,0-4.218,0.819-5.729,2.318c-2.107,2.115-2.107,4.313-2.107,9.06
		c0,4.743,0,6.946,2.107,9.061c1.512,1.499,3.491,2.333,5.729,2.333c2.231,0,4.212-0.834,5.717-2.333
		C728.756,435.714,728.756,433.511,728.756,428.768z M710.904,439.964v-2.136h-11.44v-20.241h-2.395v22.377H710.904z
		 M692.106,439.964v-2.136h-11.515v-8.079h9.81v-2.145h-9.81v-7.896h11.515v-2.121h-13.903v22.377H692.106z M671.263,424.156
		c0,2.943-1.94,4.454-4.754,4.454h-5.716v-8.902h5.716C669.322,419.708,671.263,421.195,671.263,424.156z M673.65,424.156
		c0-4.029-2.837-6.569-6.911-6.569h-8.341v22.377h2.395v-9.214h5.946C670.813,430.75,673.65,428.168,673.65,424.156z
		 M645.609,439.964v-2.136h-11.514v-8.079h9.815v-2.145h-9.815v-7.896h11.514v-2.121h-13.896v22.377H645.609z M623.695,428.522
		c0,2.732,0.057,6.06-1.475,7.67c-1.169,1.188-2.679,1.636-4.41,1.636h-4.869v-18.12h4.869c1.731,0,3.241,0.449,4.41,1.643
		C623.752,422.95,623.695,425.78,623.695,428.522z M626.078,428.522c0-3.122,0.137-6.542-2.196-8.863
		c-1.356-1.363-3.334-2.072-5.653-2.072h-7.683v22.377h7.683c2.319,0,4.297-0.723,5.653-2.077
		C626.215,435.558,626.078,431.635,626.078,428.522z M598.548,439.964v-2.136h-11.438v-20.241h-2.396v22.377H598.548z
		 M576.067,432.821h-8.366l4.217-11.818L576.067,432.821z M581.092,439.964l-8.203-22.377h-2.011l-8.24,22.377h2.558l1.79-5.07
		h9.778l1.785,5.07H581.092z M557.704,423.828c0,2.743-1.853,4.092-4.465,4.092h-5.972v-8.212h5.972
		C555.852,419.708,557.704,421.091,557.704,423.828z M560.542,439.964l-5.326-10.153c2.899-0.61,4.884-2.742,4.884-6.008
		c0-3.863-2.735-6.216-6.635-6.216h-8.592v22.377h2.395v-9.937h5.375l5.093,9.937H560.542z M539.915,439.964v-2.136h-11.508v-8.079
		h9.804v-2.145h-9.804v-7.896h11.508v-2.121h-13.902v22.377H539.915z M518,428.522c0,2.732,0.063,6.06-1.479,7.67
		c-1.157,1.188-2.675,1.636-4.398,1.636h-4.878v-18.12h4.878c1.724,0,3.241,0.449,4.398,1.643
		C518.063,422.95,518,425.78,518,428.522z M520.389,428.522c0-3.122,0.125-6.542-2.195-8.863c-1.354-1.363-3.334-2.072-5.666-2.072
		h-7.671v22.377h7.671c2.332,0,4.312-0.723,5.666-2.077C520.514,435.558,520.389,431.635,520.389,428.522z M499.881,439.964v-2.136
		h-11.494v-8.079h9.804v-2.145h-9.804v-7.896h11.494v-2.121h-13.888v22.377H499.881z M481.655,419.708v-2.121h-13.895v22.377h2.395
		v-9.879h9.797v-2.141h-9.797v-8.236H481.655z M454.964,439.964v-2.136h-11.506v-8.079h9.815v-2.145h-9.815v-7.896h11.506v-2.121
		h-13.895v22.377H454.964z M433.057,428.522c0,2.732,0.057,6.06-1.479,7.67c-1.163,1.188-2.681,1.636-4.403,1.636h-4.871v-18.12
		h4.871c1.723,0,3.24,0.449,4.403,1.643C433.113,422.95,433.057,425.78,433.057,428.522z M435.446,428.522
		c0-3.122,0.117-6.542-2.202-8.863c-1.35-1.363-3.334-2.072-5.661-2.072h-7.669v22.377h7.669c2.327,0,4.312-0.723,5.661-2.077
		C435.563,435.558,435.446,431.635,435.446,428.522z M411.268,432.821h-8.359l4.204-11.818L411.268,432.821z M416.3,439.964
		l-8.218-22.377h-2.003l-8.235,22.377h2.545l1.785-5.07h9.778l1.799,5.07H416.3z M393.006,428.522c0,2.732,0.061,6.06-1.481,7.67
		c-1.168,1.188-2.674,1.636-4.403,1.636h-4.871v-18.12h4.871c1.729,0,3.235,0.449,4.403,1.643
		C393.066,422.95,393.006,425.78,393.006,428.522z M395.393,428.522c0-3.122,0.125-6.542-2.208-8.863
		c-1.349-1.363-3.333-2.072-5.66-2.072h-7.657v22.377h7.657c2.326,0,4.311-0.723,5.66-2.077
		C395.518,435.558,395.393,431.635,395.393,428.522z M373.379,439.964v-22.377h-2.382v22.377H373.379z M365.997,433.799
		c0-1.859-0.653-3.391-1.878-4.43c-0.952-0.821-1.984-1.263-4.086-1.58l-2.453-0.373c-1.175-0.186-2.333-0.628-3.022-1.226
		c-0.69-0.596-1.007-1.474-1.007-2.574c0-2.489,1.723-4.157,4.714-4.157c2.358,0,3.839,0.668,5.22,1.923l1.537-1.542
		c-1.916-1.729-3.801-2.45-6.662-2.45c-4.435,0-7.172,2.513-7.172,6.319c0,1.785,0.572,3.171,1.705,4.181
		c0.976,0.839,2.356,1.41,4.118,1.69l2.605,0.419c1.642,0.246,2.203,0.432,2.924,1.063c0.721,0.627,1.07,1.629,1.07,2.803
		c0,2.605-2.009,4.15-5.287,4.15c-2.507,0-4.23-0.591-6.089-2.458l-1.636,1.637c2.102,2.104,4.297,2.967,7.668,2.967
		C362.912,440.161,365.997,437.723,365.997,433.799z M344.711,423.828c0,2.743-1.854,4.092-4.465,4.092h-5.965v-8.212h5.965
		C342.857,419.708,344.711,421.091,344.711,423.828z M347.542,439.964l-5.319-10.153c2.899-0.61,4.883-2.742,4.883-6.008
		c0-3.863-2.736-6.216-6.636-6.216h-8.578v22.377h2.39v-9.937h5.373l5.094,9.937H347.542z M326.916,439.964v-2.136h-11.502v-8.079
		h9.809v-2.145h-9.809v-7.896h11.502v-2.121H313.02v22.377H326.916z M309.53,417.587h-2.507l-5.815,18.104l-5.822-18.104h-2.507
		l7.353,22.377h1.946L309.53,417.587z M289.389,439.964v-22.377h-2.402v22.377H289.389z M280.519,439.964v-22.377h-2.395v17.88
		l-11.875-17.88h-2.271v22.377h2.395v-17.946l11.879,17.946H280.519z M257.814,432.572v-14.985h-2.376v14.793
		c0,3.402-2.178,5.636-5.449,5.636c-3.265,0-5.406-2.233-5.406-5.636v-14.793h-2.381v14.985c0,4.466,3.271,7.589,7.787,7.589
		C254.518,440.161,257.814,437.038,257.814,432.572z"/>
	<path fill="#293B8C" d="M217.768,193.269c-1.231-2.371-4.167-3.299-6.532-2.067l-81.652,42.435l5.505,8.063l80.615-41.901
		C218.08,198.566,219,195.643,217.768,193.269z"/>
	<path fill="#293B8C" d="M177.442,323.247c0.865,0.619,1.855,0.912,2.843,0.912c1.493,0,2.985-0.696,3.931-1.996
		c1.562-2.164,1.083-5.2-1.083-6.772l-50.956-36.919l-6.444,7.309L177.442,323.247z"/>
	<path fill="#D69304" d="M94.639,222.372c-19.275,0-34.896,15.625-34.896,34.891c0,19.27,15.62,34.888,34.896,34.888
		c9.872,0,18.761-4.116,25.111-10.711c2.245-2.326,4.174-4.957,5.698-7.837c2.586-4.877,4.075-10.43,4.075-16.34
		c0-4.081-0.742-7.982-2.029-11.626c-1.088-3.087-2.6-5.977-4.466-8.598C116.708,228.169,106.351,222.372,94.639,222.372z"/>
	<path fill="#D69304" d="M213.47,156.78c-21.378,0-38.727,17.329-38.727,38.721c0,3.277,0.454,6.445,1.225,9.479l33.417-17.361
		c1.25-0.659,2.668-1.001,4.08-1.001c3.334,0,6.357,1.829,7.888,4.789c2.257,4.342,0.566,9.716-3.782,11.981l-33.415,17.367
		c7.102,8.226,17.589,13.459,29.314,13.459c21.386,0,38.728-17.329,38.728-38.713C252.198,174.109,234.855,156.78,213.47,156.78z"/>
	<path fill="#D69304" d="M187.482,324.528c-1.66,2.294-4.36,3.669-7.197,3.669c-1.884,0-3.682-0.579-5.2-1.687l-18.998-13.754
		c-0.559,2.092-0.889,4.28-0.889,6.558c0,13.852,11.221,25.105,25.086,25.105c13.853,0,25.099-11.254,25.099-25.105
		c0-13.857-11.246-25.092-25.099-25.092c-5.095,0-9.822,1.53-13.784,4.137l18.997,13.765
		C189.46,314.992,190.356,320.558,187.482,324.528z"/>
</g>
</svg>
